<mxfile host="app.diagrams.net" modified="2021-07-14T08:17:25.936Z" agent="5.0 (Windows NT 10.0; Win64; x64) AppleWebKit/537.36 (KHTML, like Gecko) Chrome/91.0.4472.114 Safari/537.36" etag="ylQ7CjZ-IHUcsXw_y3o_" version="14.7.6" type="github">
  <diagram id="-hRJCL30t5T-kiZvjlwx" name="第 1 页">
    <mxGraphModel dx="1221" dy="622" grid="1" gridSize="10" guides="1" tooltips="1" connect="1" arrows="1" fold="1" page="1" pageScale="1" pageWidth="827" pageHeight="1169" math="0" shadow="0">
      <root>
        <mxCell id="0" />
        <mxCell id="1" parent="0" />
        <mxCell id="4pyJFJcTwUyNwGlN5-q8-25" value="" style="rounded=0;whiteSpace=wrap;html=1;fillColor=#dae8fc;strokeColor=#6c8ebf;" vertex="1" parent="1">
          <mxGeometry x="665" y="340" width="320" height="460" as="geometry" />
        </mxCell>
        <mxCell id="4pyJFJcTwUyNwGlN5-q8-24" value="" style="rounded=0;whiteSpace=wrap;html=1;" vertex="1" parent="1">
          <mxGeometry x="700" y="480" width="240" height="260" as="geometry" />
        </mxCell>
        <mxCell id="4pyJFJcTwUyNwGlN5-q8-18" value="" style="rounded=0;whiteSpace=wrap;html=1;fillColor=#dae8fc;strokeColor=#6c8ebf;" vertex="1" parent="1">
          <mxGeometry x="690" y="30" width="340" height="180" as="geometry" />
        </mxCell>
        <mxCell id="4pyJFJcTwUyNwGlN5-q8-15" value="" style="rounded=0;whiteSpace=wrap;html=1;" vertex="1" parent="1">
          <mxGeometry x="730" y="40" width="250" height="115" as="geometry" />
        </mxCell>
        <mxCell id="4pyJFJcTwUyNwGlN5-q8-7" value="" style="rounded=0;whiteSpace=wrap;html=1;fillColor=#dae8fc;strokeColor=#6c8ebf;" vertex="1" parent="1">
          <mxGeometry x="80" y="30" width="450" height="190" as="geometry" />
        </mxCell>
        <mxCell id="4pyJFJcTwUyNwGlN5-q8-5" value="" style="rounded=0;whiteSpace=wrap;html=1;" vertex="1" parent="1">
          <mxGeometry x="100" y="50" width="400" height="130" as="geometry" />
        </mxCell>
        <mxCell id="4pyJFJcTwUyNwGlN5-q8-4" style="edgeStyle=orthogonalEdgeStyle;rounded=0;orthogonalLoop=1;jettySize=auto;html=1;exitX=1;exitY=0.5;exitDx=0;exitDy=0;entryX=0;entryY=0.5;entryDx=0;entryDy=0;" edge="1" parent="1" source="4pyJFJcTwUyNwGlN5-q8-1" target="4pyJFJcTwUyNwGlN5-q8-2">
          <mxGeometry relative="1" as="geometry" />
        </mxCell>
        <mxCell id="4pyJFJcTwUyNwGlN5-q8-1" value="&lt;font style=&quot;font-size: 16px&quot;&gt;MapReduce程序&lt;/font&gt;" style="rounded=0;whiteSpace=wrap;html=1;fillColor=#dae8fc;strokeColor=#6c8ebf;" vertex="1" parent="1">
          <mxGeometry x="120" y="70" width="130" height="70" as="geometry" />
        </mxCell>
        <mxCell id="4pyJFJcTwUyNwGlN5-q8-11" style="edgeStyle=orthogonalEdgeStyle;rounded=0;orthogonalLoop=1;jettySize=auto;html=1;exitX=1;exitY=0.5;exitDx=0;exitDy=0;entryX=0;entryY=0.5;entryDx=0;entryDy=0;" edge="1" parent="1" source="4pyJFJcTwUyNwGlN5-q8-2" target="4pyJFJcTwUyNwGlN5-q8-9">
          <mxGeometry relative="1" as="geometry" />
        </mxCell>
        <mxCell id="4pyJFJcTwUyNwGlN5-q8-12" style="edgeStyle=orthogonalEdgeStyle;rounded=0;orthogonalLoop=1;jettySize=auto;html=1;exitX=1;exitY=0.75;exitDx=0;exitDy=0;entryX=0;entryY=0.75;entryDx=0;entryDy=0;" edge="1" parent="1" source="4pyJFJcTwUyNwGlN5-q8-2" target="4pyJFJcTwUyNwGlN5-q8-9">
          <mxGeometry relative="1" as="geometry" />
        </mxCell>
        <mxCell id="4pyJFJcTwUyNwGlN5-q8-31" style="edgeStyle=orthogonalEdgeStyle;rounded=0;orthogonalLoop=1;jettySize=auto;html=1;exitX=0.5;exitY=1;exitDx=0;exitDy=0;startArrow=none;startFill=0;" edge="1" parent="1" source="4pyJFJcTwUyNwGlN5-q8-2" target="4pyJFJcTwUyNwGlN5-q8-30">
          <mxGeometry relative="1" as="geometry" />
        </mxCell>
        <mxCell id="4pyJFJcTwUyNwGlN5-q8-2" value="&lt;font style=&quot;font-size: 16px&quot;&gt;作业客户端类&lt;br&gt;JobClient&lt;/font&gt;" style="rounded=0;whiteSpace=wrap;html=1;fillColor=#dae8fc;strokeColor=#6c8ebf;" vertex="1" parent="1">
          <mxGeometry x="350" y="70" width="130" height="70" as="geometry" />
        </mxCell>
        <mxCell id="4pyJFJcTwUyNwGlN5-q8-6" value="&lt;b&gt;&lt;font style=&quot;font-size: 16px&quot;&gt;Client JVM&lt;/font&gt;&lt;/b&gt;" style="text;html=1;align=center;verticalAlign=middle;resizable=0;points=[];autosize=1;strokeColor=none;" vertex="1" parent="1">
          <mxGeometry x="240" y="150" width="100" height="20" as="geometry" />
        </mxCell>
        <mxCell id="4pyJFJcTwUyNwGlN5-q8-8" value="&lt;b&gt;&lt;font style=&quot;font-size: 14px&quot;&gt;Client Node&lt;/font&gt;&lt;/b&gt;" style="text;html=1;align=center;verticalAlign=middle;resizable=0;points=[];autosize=1;strokeColor=none;" vertex="1" parent="1">
          <mxGeometry x="240" y="190" width="100" height="20" as="geometry" />
        </mxCell>
        <mxCell id="4pyJFJcTwUyNwGlN5-q8-16" style="edgeStyle=orthogonalEdgeStyle;rounded=0;orthogonalLoop=1;jettySize=auto;html=1;exitX=1;exitY=0.5;exitDx=0;exitDy=0;entryX=0.5;entryY=0;entryDx=0;entryDy=0;" edge="1" parent="1" source="4pyJFJcTwUyNwGlN5-q8-9" target="4pyJFJcTwUyNwGlN5-q8-9">
          <mxGeometry relative="1" as="geometry">
            <Array as="points">
              <mxPoint x="900" y="105" />
              <mxPoint x="900" y="50" />
              <mxPoint x="815" y="50" />
            </Array>
          </mxGeometry>
        </mxCell>
        <mxCell id="4pyJFJcTwUyNwGlN5-q8-32" style="rounded=0;orthogonalLoop=1;jettySize=auto;html=1;exitX=0;exitY=1;exitDx=0;exitDy=0;startArrow=none;startFill=0;" edge="1" parent="1" source="4pyJFJcTwUyNwGlN5-q8-9">
          <mxGeometry relative="1" as="geometry">
            <mxPoint x="450" y="350" as="targetPoint" />
          </mxGeometry>
        </mxCell>
        <mxCell id="4pyJFJcTwUyNwGlN5-q8-9" value="&lt;font style=&quot;font-size: 16px&quot;&gt;Jobtracker&lt;/font&gt;" style="rounded=0;whiteSpace=wrap;html=1;fillColor=#dae8fc;strokeColor=#6c8ebf;" vertex="1" parent="1">
          <mxGeometry x="750" y="70" width="130" height="70" as="geometry" />
        </mxCell>
        <mxCell id="4pyJFJcTwUyNwGlN5-q8-10" value="1. 启动job" style="text;html=1;align=center;verticalAlign=middle;resizable=0;points=[];autosize=1;strokeColor=none;" vertex="1" parent="1">
          <mxGeometry x="260" y="80" width="80" height="20" as="geometry" />
        </mxCell>
        <mxCell id="4pyJFJcTwUyNwGlN5-q8-13" value="2. 请求新作业" style="text;html=1;align=center;verticalAlign=middle;resizable=0;points=[];autosize=1;strokeColor=none;" vertex="1" parent="1">
          <mxGeometry x="560" y="80" width="100" height="20" as="geometry" />
        </mxCell>
        <mxCell id="4pyJFJcTwUyNwGlN5-q8-14" value="4. 提交作业" style="text;html=1;align=center;verticalAlign=middle;resizable=0;points=[];autosize=1;strokeColor=none;" vertex="1" parent="1">
          <mxGeometry x="555" y="130" width="90" height="20" as="geometry" />
        </mxCell>
        <mxCell id="4pyJFJcTwUyNwGlN5-q8-17" value="5. 初始化作业" style="text;html=1;align=center;verticalAlign=middle;resizable=0;points=[];autosize=1;strokeColor=none;" vertex="1" parent="1">
          <mxGeometry x="880" y="110" width="100" height="20" as="geometry" />
        </mxCell>
        <mxCell id="4pyJFJcTwUyNwGlN5-q8-19" value="&lt;b&gt;&lt;font style=&quot;font-size: 14px&quot;&gt;JobTracker Node&lt;/font&gt;&lt;/b&gt;" style="text;html=1;align=center;verticalAlign=middle;resizable=0;points=[];autosize=1;strokeColor=none;" vertex="1" parent="1">
          <mxGeometry x="790" y="170" width="130" height="20" as="geometry" />
        </mxCell>
        <mxCell id="4pyJFJcTwUyNwGlN5-q8-21" style="edgeStyle=orthogonalEdgeStyle;rounded=0;orthogonalLoop=1;jettySize=auto;html=1;exitX=0.5;exitY=0;exitDx=0;exitDy=0;entryX=0.369;entryY=1;entryDx=0;entryDy=0;entryPerimeter=0;startArrow=classic;startFill=1;" edge="1" parent="1" source="4pyJFJcTwUyNwGlN5-q8-20" target="4pyJFJcTwUyNwGlN5-q8-18">
          <mxGeometry relative="1" as="geometry" />
        </mxCell>
        <mxCell id="4pyJFJcTwUyNwGlN5-q8-26" style="edgeStyle=orthogonalEdgeStyle;rounded=0;orthogonalLoop=1;jettySize=auto;html=1;exitX=0.5;exitY=1;exitDx=0;exitDy=0;startArrow=none;startFill=0;" edge="1" parent="1" source="4pyJFJcTwUyNwGlN5-q8-20">
          <mxGeometry relative="1" as="geometry">
            <mxPoint x="815" y="480" as="targetPoint" />
            <Array as="points">
              <mxPoint x="815" y="480" />
            </Array>
          </mxGeometry>
        </mxCell>
        <mxCell id="4pyJFJcTwUyNwGlN5-q8-33" style="edgeStyle=none;rounded=0;orthogonalLoop=1;jettySize=auto;html=1;exitX=0;exitY=0.5;exitDx=0;exitDy=0;entryX=0.953;entryY=0.582;entryDx=0;entryDy=0;entryPerimeter=0;startArrow=none;startFill=0;" edge="1" parent="1" source="4pyJFJcTwUyNwGlN5-q8-20" target="4pyJFJcTwUyNwGlN5-q8-30">
          <mxGeometry relative="1" as="geometry" />
        </mxCell>
        <mxCell id="4pyJFJcTwUyNwGlN5-q8-20" value="&lt;font style=&quot;font-size: 16px&quot;&gt;TaskTracker&lt;/font&gt;" style="rounded=0;whiteSpace=wrap;html=1;fillColor=#dae8fc;strokeColor=#6c8ebf;strokeWidth=2;" vertex="1" parent="1">
          <mxGeometry x="750" y="360" width="130" height="70" as="geometry" />
        </mxCell>
        <mxCell id="4pyJFJcTwUyNwGlN5-q8-29" style="edgeStyle=orthogonalEdgeStyle;rounded=0;orthogonalLoop=1;jettySize=auto;html=1;exitX=0.5;exitY=1;exitDx=0;exitDy=0;entryX=0.5;entryY=0;entryDx=0;entryDy=0;startArrow=none;startFill=0;" edge="1" parent="1" source="4pyJFJcTwUyNwGlN5-q8-22" target="4pyJFJcTwUyNwGlN5-q8-23">
          <mxGeometry relative="1" as="geometry" />
        </mxCell>
        <mxCell id="4pyJFJcTwUyNwGlN5-q8-22" value="&lt;span style=&quot;font-size: 16px&quot;&gt;child&lt;/span&gt;" style="rounded=0;whiteSpace=wrap;html=1;fillColor=#dae8fc;strokeColor=#6c8ebf;" vertex="1" parent="1">
          <mxGeometry x="750" y="520" width="130" height="70" as="geometry" />
        </mxCell>
        <mxCell id="4pyJFJcTwUyNwGlN5-q8-23" value="&lt;span style=&quot;font-size: 16px&quot;&gt;MapTask or&lt;br&gt;ReduceTask&lt;br&gt;&lt;/span&gt;" style="rounded=0;whiteSpace=wrap;html=1;fillColor=#dae8fc;strokeColor=#6c8ebf;" vertex="1" parent="1">
          <mxGeometry x="750" y="650" width="130" height="70" as="geometry" />
        </mxCell>
        <mxCell id="4pyJFJcTwUyNwGlN5-q8-27" value="&lt;font style=&quot;font-size: 16px&quot;&gt;Child JVM&lt;/font&gt;" style="text;html=1;align=center;verticalAlign=middle;resizable=0;points=[];autosize=1;strokeColor=none;" vertex="1" parent="1">
          <mxGeometry x="770" y="490" width="90" height="20" as="geometry" />
        </mxCell>
        <mxCell id="4pyJFJcTwUyNwGlN5-q8-28" value="&lt;b&gt;&lt;font style=&quot;font-size: 14px&quot;&gt;TaskTrackerNode&lt;/font&gt;&lt;/b&gt;" style="text;html=1;align=center;verticalAlign=middle;resizable=0;points=[];autosize=1;strokeColor=none;" vertex="1" parent="1">
          <mxGeometry x="755" y="760" width="130" height="20" as="geometry" />
        </mxCell>
        <mxCell id="4pyJFJcTwUyNwGlN5-q8-30" value="共享文件系统&lt;br&gt;HDFS" style="ellipse;shape=cloud;whiteSpace=wrap;html=1;strokeWidth=2;" vertex="1" parent="1">
          <mxGeometry x="355" y="350" width="120" height="80" as="geometry" />
        </mxCell>
        <mxCell id="4pyJFJcTwUyNwGlN5-q8-34" value="3. 将作业信息发送到共享文件平台" style="text;html=1;align=center;verticalAlign=middle;resizable=0;points=[];autosize=1;strokeColor=none;" vertex="1" parent="1">
          <mxGeometry x="170" y="260" width="230" height="20" as="geometry" />
        </mxCell>
        <mxCell id="4pyJFJcTwUyNwGlN5-q8-35" value="6. 获取分片信息，创建map任务" style="text;html=1;align=center;verticalAlign=middle;resizable=0;points=[];autosize=1;strokeColor=none;" vertex="1" parent="1">
          <mxGeometry x="490" y="240" width="210" height="20" as="geometry" />
        </mxCell>
        <mxCell id="4pyJFJcTwUyNwGlN5-q8-36" value="7. 心跳通信（分配任务）" style="text;html=1;align=center;verticalAlign=middle;resizable=0;points=[];autosize=1;strokeColor=none;" vertex="1" parent="1">
          <mxGeometry x="827" y="260" width="170" height="20" as="geometry" />
        </mxCell>
        <mxCell id="4pyJFJcTwUyNwGlN5-q8-37" value="8. 获取任务信息" style="text;html=1;align=center;verticalAlign=middle;resizable=0;points=[];autosize=1;strokeColor=none;" vertex="1" parent="1">
          <mxGeometry x="520" y="370" width="110" height="20" as="geometry" />
        </mxCell>
        <mxCell id="4pyJFJcTwUyNwGlN5-q8-38" value="9. 创建新的JVM运行任务" style="text;html=1;align=center;verticalAlign=middle;resizable=0;points=[];autosize=1;strokeColor=none;" vertex="1" parent="1">
          <mxGeometry x="815" y="440" width="170" height="20" as="geometry" />
        </mxCell>
        <mxCell id="4pyJFJcTwUyNwGlN5-q8-39" value="10. 运行map / reduce" style="text;html=1;align=center;verticalAlign=middle;resizable=0;points=[];autosize=1;strokeColor=none;" vertex="1" parent="1">
          <mxGeometry x="810" y="610" width="150" height="20" as="geometry" />
        </mxCell>
      </root>
    </mxGraphModel>
  </diagram>
</mxfile>
